<svg xmlns="http://www.w3.org/2000/svg" xmlns:xlink="http://www.w3.org/1999/xlink" width="100" zoomAndPan="magnify" viewBox="0 0 75 74.999997" height="100" preserveAspectRatio="xMidYMid meet" version="1.0"><defs><filter x="0%" y="0%" width="100%" height="100%" id="0f56874e2b"><feColorMatrix values="0 0 0 0 1 0 0 0 0 1 0 0 0 0 1 0 0 0 1 0" color-interpolation-filters="sRGB"/></filter><g/><clipPath id="8f46dcd235"><path d="M 6 22.5 L 26 22.5 L 26 51 L 6 51 Z M 6 22.5 " clip-rule="nonzero"/></clipPath><clipPath id="81f6f85a2a"><path d="M 18 38 L 30 38 L 30 52.5 L 18 52.5 Z M 18 38 " clip-rule="nonzero"/></clipPath><mask id="e0f574e8e9"><g filter="url(#0f56874e2b)"><rect x="-7.5" width="90" fill="#000000" y="-7.5" height="89.999996" fill-opacity="0.61"/></g></mask><clipPath id="1ad5868718"><path d="M 1 0.800781 L 39.921875 0.800781 L 39.921875 1.761719 L 1 1.761719 Z M 1 0.800781 " clip-rule="nonzero"/></clipPath><clipPath id="82366422f7"><rect x="0" width="40" y="0" height="2"/></clipPath></defs><path fill="#ff3131" d="M 19.730469 32.078125 C 19.65625 32.027344 19.566406 32.007812 19.476562 32.007812 L 12.398438 32.007812 C 12.382812 32.007812 12.367188 31.996094 12.363281 31.980469 L 11.929688 30.171875 C 11.878906 29.96875 11.695312 29.824219 11.484375 29.824219 L 9.617188 29.824219 C 9.554688 29.824219 9.503906 29.875 9.503906 29.9375 L 9.503906 30.542969 C 9.503906 30.605469 9.554688 30.660156 9.617188 30.660156 L 11.15625 30.660156 C 11.175781 30.660156 11.1875 30.671875 11.195312 30.6875 L 12.953125 38.035156 C 13 38.222656 13.167969 38.355469 13.359375 38.355469 L 17.667969 38.355469 C 17.730469 38.355469 17.78125 38.304688 17.78125 38.242188 L 17.78125 37.636719 C 17.78125 37.570312 17.730469 37.519531 17.667969 37.519531 L 13.71875 37.519531 C 13.703125 37.519531 13.6875 37.507812 13.683594 37.492188 L 13.574219 37.035156 C 13.570312 37.015625 13.582031 36.992188 13.601562 36.988281 L 18.464844 35.964844 C 18.605469 35.933594 18.722656 35.832031 18.769531 35.695312 L 19.890625 32.566406 C 19.957031 32.390625 19.894531 32.191406 19.730469 32.078125 " fill-opacity="1" fill-rule="nonzero"/><path fill="#ff3131" d="M 13.511719 39.679688 C 13.511719 39.28125 13.832031 38.957031 14.234375 38.957031 C 14.632812 38.957031 14.957031 39.28125 14.957031 39.679688 C 14.957031 40.082031 14.632812 40.402344 14.234375 40.402344 C 13.832031 40.402344 13.511719 40.082031 13.511719 39.679688 " fill-opacity="1" fill-rule="nonzero"/><path fill="#ff3131" d="M 15.769531 39.679688 C 15.769531 39.28125 16.09375 38.957031 16.492188 38.957031 C 16.890625 38.957031 17.214844 39.28125 17.214844 39.679688 C 17.214844 40.082031 16.890625 40.402344 16.492188 40.402344 C 16.09375 40.402344 15.769531 40.082031 15.769531 39.679688 " fill-opacity="1" fill-rule="nonzero"/><g clip-path="url(#8f46dcd235)"><path fill="#ff3131" d="M 18.078125 24.855469 L 13.574219 24.855469 C 13.40625 24.855469 13.269531 24.71875 13.269531 24.550781 C 13.269531 24.46875 13.304688 24.390625 13.359375 24.335938 C 13.414062 24.28125 13.488281 24.246094 13.574219 24.246094 L 18.078125 24.246094 C 18.246094 24.246094 18.382812 24.382812 18.382812 24.550781 C 18.382812 24.71875 18.246094 24.855469 18.078125 24.855469 Z M 15.828125 46.695312 C 16.578125 46.695312 17.1875 47.304688 17.1875 48.058594 C 17.1875 48.8125 16.578125 49.421875 15.828125 49.421875 C 15.074219 49.421875 14.464844 48.8125 14.464844 48.058594 C 14.464844 47.304688 15.074219 46.695312 15.828125 46.695312 Z M 23.433594 22.5 L 8.21875 22.5 C 6.996094 22.5 6.007812 23.488281 6.007812 24.707031 L 6.007812 48.425781 C 6.007812 49.648438 6.996094 50.636719 8.21875 50.636719 L 22.757812 50.636719 C 22.738281 50.625 22.71875 50.613281 22.699219 50.605469 L 20.996094 49.835938 C 20.445312 49.648438 20 49.242188 19.769531 48.707031 L 18.386719 45.511719 C 18.382812 45.503906 18.382812 45.5 18.378906 45.496094 L 8.097656 45.496094 C 7.617188 45.496094 7.230469 45.109375 7.230469 44.628906 L 7.230469 26.867188 C 7.230469 26.386719 7.617188 26 8.097656 26 L 23.554688 26 C 24.035156 26 24.421875 26.386719 24.421875 26.867188 L 24.421875 39.597656 C 24.8125 39.570312 25.203125 39.675781 25.523438 39.890625 C 25.5625 39.863281 25.601562 39.839844 25.644531 39.816406 L 25.644531 24.707031 C 25.644531 23.488281 24.65625 22.5 23.433594 22.5 " fill-opacity="1" fill-rule="nonzero"/></g><g clip-path="url(#81f6f85a2a)"><path fill="#ff3131" d="M 27.332031 41.023438 L 28.675781 44.128906 C 28.886719 44.609375 28.960938 45.136719 28.894531 45.652344 L 28.851562 47.917969 C 28.847656 48.132812 28.886719 48.34375 28.972656 48.542969 L 29.59375 49.980469 C 29.6875 50.195312 29.589844 50.449219 29.371094 50.542969 L 25.070312 52.40625 C 24.851562 52.5 24.601562 52.398438 24.507812 52.179688 L 23.816406 50.589844 C 23.667969 50.246094 23.398438 49.96875 23.058594 49.816406 L 21.308594 49.023438 C 20.972656 48.925781 20.703125 48.683594 20.566406 48.363281 L 19.179688 45.167969 C 19.011719 44.777344 19.039062 44.328125 19.253906 43.964844 L 19.726562 43.160156 C 19.773438 43.078125 19.890625 43.078125 19.9375 43.160156 L 21.566406 45.9375 L 21.636719 45.910156 L 20.199219 42.574219 L 18.773438 39.277344 C 18.765625 39.261719 18.757812 39.242188 18.753906 39.222656 C 18.675781 39.011719 18.6875 38.789062 18.761719 38.59375 C 18.847656 38.378906 19.011719 38.199219 19.242188 38.101562 C 19.695312 37.902344 20.222656 38.113281 20.417969 38.566406 L 21.921875 42.046875 C 21.824219 41.816406 21.828125 41.574219 21.910156 41.359375 C 21.996094 41.144531 22.164062 40.964844 22.394531 40.867188 C 22.851562 40.671875 23.378906 40.902344 23.578125 41.359375 L 23.730469 41.710938 C 23.632812 41.484375 23.632812 41.238281 23.71875 41.023438 C 23.804688 40.8125 23.96875 40.632812 24.195312 40.53125 C 24.648438 40.335938 25.175781 40.546875 25.371094 41 L 25.679688 41.710938 C 25.476562 41.242188 25.703125 40.695312 26.1875 40.515625 C 26.636719 40.34375 27.140625 40.578125 27.332031 41.023438 " fill-opacity="1" fill-rule="nonzero"/></g><g fill="#ff3131" fill-opacity="1"><g transform="translate(27.015497, 35.311291)"><g><path d="M 1.46875 0 L 0.71875 0 L 0.71875 -5.140625 L 1.84375 -5.140625 L 3.265625 -1.078125 L 3.34375 -1.078125 L 4.765625 -5.140625 L 5.84375 -5.140625 L 5.84375 0 L 5.078125 0 L 5.078125 -3.796875 L 4.984375 -3.8125 L 3.640625 0 L 2.90625 0 L 1.5625 -3.8125 L 1.46875 -3.796875 Z M 1.46875 0 "/></g></g><g transform="translate(33.5862, 35.311291)"><g><path d="M 2.234375 0.078125 C 1.867188 0.078125 1.546875 0 1.265625 -0.15625 C 0.984375 -0.3125 0.765625 -0.539062 0.609375 -0.84375 C 0.460938 -1.144531 0.390625 -1.507812 0.390625 -1.9375 C 0.390625 -2.363281 0.460938 -2.726562 0.609375 -3.03125 C 0.765625 -3.332031 0.984375 -3.5625 1.265625 -3.71875 C 1.546875 -3.875 1.867188 -3.953125 2.234375 -3.953125 C 2.609375 -3.953125 2.9375 -3.875 3.21875 -3.71875 C 3.5 -3.5625 3.710938 -3.332031 3.859375 -3.03125 C 4.015625 -2.726562 4.09375 -2.363281 4.09375 -1.9375 C 4.09375 -1.507812 4.015625 -1.144531 3.859375 -0.84375 C 3.710938 -0.539062 3.5 -0.3125 3.21875 -0.15625 C 2.9375 0 2.609375 0.078125 2.234375 0.078125 Z M 2.234375 -0.59375 C 2.941406 -0.59375 3.296875 -1.039062 3.296875 -1.9375 C 3.296875 -2.832031 2.941406 -3.28125 2.234375 -3.28125 C 1.898438 -3.28125 1.640625 -3.171875 1.453125 -2.953125 C 1.273438 -2.734375 1.1875 -2.394531 1.1875 -1.9375 C 1.1875 -1.039062 1.535156 -0.59375 2.234375 -0.59375 Z M 2.234375 -0.59375 "/></g></g><g transform="translate(38.065106, 35.311291)"><g><path d="M 2.640625 0.078125 C 2.367188 0.078125 2.132812 0.0234375 1.9375 -0.078125 C 1.738281 -0.191406 1.582031 -0.335938 1.46875 -0.515625 L 1.390625 -0.5 L 1.390625 0 L 0.625 0 L 0.625 -5.4375 L 1.390625 -5.4375 L 1.390625 -3.359375 L 1.46875 -3.34375 C 1.601562 -3.550781 1.769531 -3.703125 1.96875 -3.796875 C 2.175781 -3.898438 2.410156 -3.953125 2.671875 -3.953125 C 2.984375 -3.953125 3.257812 -3.878906 3.5 -3.734375 C 3.738281 -3.585938 3.921875 -3.363281 4.046875 -3.0625 C 4.179688 -2.757812 4.25 -2.382812 4.25 -1.9375 C 4.25 -1.5 4.179688 -1.128906 4.046875 -0.828125 C 3.910156 -0.523438 3.71875 -0.296875 3.46875 -0.140625 C 3.226562 0.00390625 2.953125 0.078125 2.640625 0.078125 Z M 2.4375 -0.59375 C 3.113281 -0.59375 3.453125 -1.039062 3.453125 -1.9375 C 3.453125 -2.832031 3.113281 -3.28125 2.4375 -3.28125 C 2.113281 -3.28125 1.859375 -3.164062 1.671875 -2.9375 C 1.484375 -2.71875 1.390625 -2.382812 1.390625 -1.9375 C 1.390625 -1.488281 1.484375 -1.148438 1.671875 -0.921875 C 1.859375 -0.703125 2.113281 -0.59375 2.4375 -0.59375 Z M 2.4375 -0.59375 "/></g></g><g transform="translate(42.702215, 35.311291)"><g><path d="M 1 -4.484375 C 0.851562 -4.484375 0.734375 -4.53125 0.640625 -4.625 C 0.546875 -4.71875 0.5 -4.835938 0.5 -4.984375 C 0.5 -5.117188 0.546875 -5.234375 0.640625 -5.328125 C 0.734375 -5.421875 0.851562 -5.46875 1 -5.46875 C 1.15625 -5.46875 1.28125 -5.421875 1.375 -5.328125 C 1.46875 -5.234375 1.515625 -5.117188 1.515625 -4.984375 C 1.515625 -4.835938 1.46875 -4.71875 1.375 -4.625 C 1.28125 -4.53125 1.15625 -4.484375 1 -4.484375 Z M 0.625 0 L 0.625 -3.875 L 1.390625 -3.875 L 1.390625 0 Z M 0.625 0 "/></g></g><g transform="translate(44.709636, 35.311291)"><g><path d="M 1.578125 0.078125 C 1.265625 0.078125 1.019531 -0.00390625 0.84375 -0.171875 C 0.675781 -0.347656 0.59375 -0.613281 0.59375 -0.96875 L 0.59375 -5.4375 L 1.375 -5.4375 L 1.375 -1 C 1.375 -0.851562 1.398438 -0.75 1.453125 -0.6875 C 1.515625 -0.625 1.601562 -0.59375 1.71875 -0.59375 C 1.78125 -0.59375 1.847656 -0.601562 1.921875 -0.625 L 1.96875 -0.609375 L 2.046875 -0.015625 C 2.003906 0.015625 1.941406 0.0351562 1.859375 0.046875 C 1.773438 0.0664062 1.679688 0.078125 1.578125 0.078125 Z M 1.578125 0.078125 "/></g></g><g transform="translate(46.878777, 35.311291)"><g><path d="M 3.765625 -1.765625 L 1.1875 -1.765625 C 1.226562 -0.984375 1.585938 -0.59375 2.265625 -0.59375 C 2.515625 -0.59375 2.71875 -0.640625 2.875 -0.734375 C 3.03125 -0.828125 3.148438 -0.96875 3.234375 -1.15625 L 3.3125 -1.15625 L 3.828125 -0.84375 C 3.703125 -0.5625 3.515625 -0.335938 3.265625 -0.171875 C 3.015625 -0.00390625 2.679688 0.078125 2.265625 0.078125 C 1.878906 0.078125 1.546875 0.00390625 1.265625 -0.140625 C 0.984375 -0.296875 0.765625 -0.523438 0.609375 -0.828125 C 0.460938 -1.128906 0.390625 -1.5 0.390625 -1.9375 C 0.390625 -2.375 0.46875 -2.742188 0.625 -3.046875 C 0.78125 -3.347656 0.992188 -3.570312 1.265625 -3.71875 C 1.546875 -3.875 1.863281 -3.953125 2.21875 -3.953125 C 2.738281 -3.953125 3.140625 -3.804688 3.421875 -3.515625 C 3.710938 -3.234375 3.859375 -2.816406 3.859375 -2.265625 C 3.859375 -2.054688 3.851562 -1.90625 3.84375 -1.8125 Z M 3.109375 -2.3125 C 3.097656 -2.664062 3.015625 -2.921875 2.859375 -3.078125 C 2.710938 -3.242188 2.5 -3.328125 2.21875 -3.328125 C 1.925781 -3.328125 1.691406 -3.242188 1.515625 -3.078125 C 1.347656 -2.921875 1.242188 -2.664062 1.203125 -2.3125 Z M 3.109375 -2.3125 "/></g></g><g transform="translate(51.055339, 35.311291)"><g/></g><g transform="translate(52.788542, 35.311291)"><g><path d="M 2.265625 0.078125 C 1.921875 0.078125 1.613281 0.0351562 1.34375 -0.046875 C 1.082031 -0.140625 0.863281 -0.257812 0.6875 -0.40625 C 0.507812 -0.550781 0.375 -0.707031 0.28125 -0.875 L 0.71875 -1.421875 L 0.8125 -1.421875 C 0.96875 -1.171875 1.164062 -0.976562 1.40625 -0.84375 C 1.644531 -0.707031 1.929688 -0.640625 2.265625 -0.640625 C 2.585938 -0.640625 2.832031 -0.707031 3 -0.84375 C 3.164062 -0.988281 3.25 -1.179688 3.25 -1.421875 C 3.25 -1.566406 3.222656 -1.6875 3.171875 -1.78125 C 3.117188 -1.882812 3.03125 -1.972656 2.90625 -2.046875 C 2.78125 -2.117188 2.613281 -2.179688 2.40625 -2.234375 L 1.765625 -2.375 C 1.316406 -2.488281 0.984375 -2.664062 0.765625 -2.90625 C 0.546875 -3.144531 0.4375 -3.453125 0.4375 -3.828125 C 0.4375 -4.097656 0.503906 -4.335938 0.640625 -4.546875 C 0.773438 -4.753906 0.972656 -4.914062 1.234375 -5.03125 C 1.503906 -5.15625 1.828125 -5.21875 2.203125 -5.21875 C 2.585938 -5.21875 2.914062 -5.164062 3.1875 -5.0625 C 3.46875 -4.957031 3.695312 -4.796875 3.875 -4.578125 L 3.46875 -4.03125 L 3.390625 -4.03125 C 3.242188 -4.195312 3.070312 -4.316406 2.875 -4.390625 C 2.675781 -4.472656 2.453125 -4.515625 2.203125 -4.515625 C 1.878906 -4.515625 1.632812 -4.457031 1.46875 -4.34375 C 1.3125 -4.226562 1.234375 -4.0625 1.234375 -3.84375 C 1.234375 -3.65625 1.289062 -3.5 1.40625 -3.375 C 1.519531 -3.257812 1.722656 -3.171875 2.015625 -3.109375 L 2.65625 -2.96875 C 3.15625 -2.851562 3.515625 -2.671875 3.734375 -2.421875 C 3.960938 -2.171875 4.078125 -1.851562 4.078125 -1.46875 C 4.078125 -1.164062 4.007812 -0.894531 3.875 -0.65625 C 3.738281 -0.425781 3.535156 -0.242188 3.265625 -0.109375 C 2.992188 0.015625 2.660156 0.078125 2.265625 0.078125 Z M 2.265625 0.078125 "/></g></g><g transform="translate(57.200651, 35.311291)"><g><path d="M 0.625 0 L 0.625 -5.4375 L 1.390625 -5.4375 L 1.390625 -3.359375 L 1.46875 -3.34375 C 1.738281 -3.75 2.128906 -3.953125 2.640625 -3.953125 C 3.085938 -3.953125 3.414062 -3.828125 3.625 -3.578125 C 3.84375 -3.335938 3.953125 -2.976562 3.953125 -2.5 L 3.953125 0 L 3.171875 0 L 3.171875 -2.4375 C 3.171875 -2.738281 3.109375 -2.957031 2.984375 -3.09375 C 2.867188 -3.226562 2.679688 -3.296875 2.421875 -3.296875 C 2.109375 -3.296875 1.859375 -3.191406 1.671875 -2.984375 C 1.484375 -2.785156 1.390625 -2.457031 1.390625 -2 L 1.390625 0 Z M 0.625 0 "/></g></g><g transform="translate(61.704166, 35.311291)"><g><path d="M 2.234375 0.078125 C 1.867188 0.078125 1.546875 0 1.265625 -0.15625 C 0.984375 -0.3125 0.765625 -0.539062 0.609375 -0.84375 C 0.460938 -1.144531 0.390625 -1.507812 0.390625 -1.9375 C 0.390625 -2.363281 0.460938 -2.726562 0.609375 -3.03125 C 0.765625 -3.332031 0.984375 -3.5625 1.265625 -3.71875 C 1.546875 -3.875 1.867188 -3.953125 2.234375 -3.953125 C 2.609375 -3.953125 2.9375 -3.875 3.21875 -3.71875 C 3.5 -3.5625 3.710938 -3.332031 3.859375 -3.03125 C 4.015625 -2.726562 4.09375 -2.363281 4.09375 -1.9375 C 4.09375 -1.507812 4.015625 -1.144531 3.859375 -0.84375 C 3.710938 -0.539062 3.5 -0.3125 3.21875 -0.15625 C 2.9375 0 2.609375 0.078125 2.234375 0.078125 Z M 2.234375 -0.59375 C 2.941406 -0.59375 3.296875 -1.039062 3.296875 -1.9375 C 3.296875 -2.832031 2.941406 -3.28125 2.234375 -3.28125 C 1.898438 -3.28125 1.640625 -3.171875 1.453125 -2.953125 C 1.273438 -2.734375 1.1875 -2.394531 1.1875 -1.9375 C 1.1875 -1.039062 1.535156 -0.59375 2.234375 -0.59375 Z M 2.234375 -0.59375 "/></g></g><g transform="translate(66.183072, 35.311291)"><g><path d="M 0.625 1.578125 L 0.625 -3.875 L 1.390625 -3.875 L 1.390625 -3.34375 L 1.46875 -3.328125 C 1.59375 -3.535156 1.757812 -3.691406 1.96875 -3.796875 C 2.175781 -3.898438 2.410156 -3.953125 2.671875 -3.953125 C 2.984375 -3.953125 3.257812 -3.878906 3.5 -3.734375 C 3.738281 -3.585938 3.921875 -3.363281 4.046875 -3.0625 C 4.179688 -2.757812 4.25 -2.382812 4.25 -1.9375 C 4.25 -1.488281 4.175781 -1.113281 4.03125 -0.8125 C 3.894531 -0.519531 3.703125 -0.296875 3.453125 -0.140625 C 3.210938 0.00390625 2.929688 0.078125 2.609375 0.078125 C 2.359375 0.078125 2.140625 0.0351562 1.953125 -0.046875 C 1.765625 -0.140625 1.601562 -0.28125 1.46875 -0.46875 L 1.390625 -0.453125 L 1.390625 1.578125 Z M 2.421875 -0.59375 C 2.753906 -0.59375 3.007812 -0.695312 3.1875 -0.90625 C 3.363281 -1.125 3.453125 -1.46875 3.453125 -1.9375 C 3.453125 -2.40625 3.363281 -2.742188 3.1875 -2.953125 C 3.007812 -3.171875 2.753906 -3.28125 2.421875 -3.28125 C 2.109375 -3.28125 1.859375 -3.164062 1.671875 -2.9375 C 1.484375 -2.71875 1.390625 -2.382812 1.390625 -1.9375 C 1.390625 -1.488281 1.484375 -1.148438 1.671875 -0.921875 C 1.859375 -0.703125 2.109375 -0.59375 2.421875 -0.59375 Z M 2.421875 -0.59375 "/></g></g></g><g fill="#ff3131" fill-opacity="1"><g transform="translate(27.315499, 39.748421)"><g><path d="M 0.859375 -1.296875 L 0.859375 -0.375 L 2.265625 -0.375 L 2.265625 0 L 0.40625 0 L 0.40625 -2.859375 L 2.234375 -2.859375 L 2.234375 -2.484375 L 0.859375 -2.484375 L 0.859375 -1.671875 L 2.0625 -1.671875 L 2.0625 -1.296875 Z M 0.859375 -1.296875 "/></g></g></g><g fill="#ff3131" fill-opacity="1"><g transform="translate(30.960139, 39.748421)"><g><path d="M 1.34375 -1.203125 L 0.1875 -1.203125 L 0.1875 -1.578125 L 1.34375 -1.578125 Z M 1.34375 -1.203125 "/></g></g></g><g fill="#ff3131" fill-opacity="1"><g transform="translate(33.700835, 39.748421)"><g><path d="M 1.265625 0.046875 C 1.066406 0.046875 0.894531 0.0195312 0.75 -0.03125 C 0.601562 -0.0820312 0.476562 -0.144531 0.375 -0.21875 C 0.28125 -0.300781 0.207031 -0.390625 0.15625 -0.484375 L 0.40625 -0.78125 L 0.453125 -0.78125 C 0.535156 -0.644531 0.644531 -0.539062 0.78125 -0.46875 C 0.914062 -0.394531 1.078125 -0.359375 1.265625 -0.359375 C 1.441406 -0.359375 1.578125 -0.394531 1.671875 -0.46875 C 1.765625 -0.550781 1.8125 -0.660156 1.8125 -0.796875 C 1.8125 -0.867188 1.796875 -0.929688 1.765625 -0.984375 C 1.734375 -1.046875 1.679688 -1.097656 1.609375 -1.140625 C 1.546875 -1.179688 1.453125 -1.210938 1.328125 -1.234375 L 0.984375 -1.328125 C 0.734375 -1.378906 0.546875 -1.472656 0.421875 -1.609375 C 0.296875 -1.742188 0.234375 -1.914062 0.234375 -2.125 C 0.234375 -2.28125 0.269531 -2.414062 0.34375 -2.53125 C 0.425781 -2.644531 0.539062 -2.734375 0.6875 -2.796875 C 0.84375 -2.859375 1.019531 -2.890625 1.21875 -2.890625 C 1.4375 -2.890625 1.617188 -2.859375 1.765625 -2.796875 C 1.921875 -2.742188 2.050781 -2.660156 2.15625 -2.546875 L 1.9375 -2.234375 L 1.875 -2.234375 C 1.800781 -2.328125 1.707031 -2.394531 1.59375 -2.4375 C 1.488281 -2.488281 1.363281 -2.515625 1.21875 -2.515625 C 1.039062 -2.515625 0.90625 -2.476562 0.8125 -2.40625 C 0.726562 -2.34375 0.6875 -2.253906 0.6875 -2.140625 C 0.6875 -2.023438 0.71875 -1.9375 0.78125 -1.875 C 0.84375 -1.8125 0.953125 -1.765625 1.109375 -1.734375 L 1.46875 -1.640625 C 1.75 -1.578125 1.953125 -1.476562 2.078125 -1.34375 C 2.203125 -1.207031 2.265625 -1.03125 2.265625 -0.8125 C 2.265625 -0.644531 2.226562 -0.492188 2.15625 -0.359375 C 2.082031 -0.234375 1.96875 -0.132812 1.8125 -0.0625 C 1.664062 0.0078125 1.484375 0.046875 1.265625 0.046875 Z M 1.265625 0.046875 "/></g></g></g><g fill="#ff3131" fill-opacity="1"><g transform="translate(37.363046, 39.748421)"><g><path d="M 2.234375 -1.734375 L 2.234375 -2.859375 L 2.6875 -2.859375 L 2.6875 0 L 2.234375 0 L 2.234375 -1.359375 L 0.859375 -1.359375 L 0.859375 0 L 0.40625 0 L 0.40625 -2.859375 L 0.859375 -2.859375 L 0.859375 -1.734375 Z M 2.234375 -1.734375 "/></g></g></g><g fill="#ff3131" fill-opacity="1"><g transform="translate(41.659775, 39.748421)"><g><path d="M 1.5625 0.046875 C 1.3125 0.046875 1.085938 -0.00390625 0.890625 -0.109375 C 0.691406 -0.222656 0.535156 -0.390625 0.421875 -0.609375 C 0.304688 -0.828125 0.25 -1.097656 0.25 -1.421875 C 0.25 -1.753906 0.304688 -2.03125 0.421875 -2.25 C 0.535156 -2.46875 0.691406 -2.628906 0.890625 -2.734375 C 1.085938 -2.835938 1.3125 -2.890625 1.5625 -2.890625 C 1.820312 -2.890625 2.046875 -2.835938 2.234375 -2.734375 C 2.429688 -2.628906 2.585938 -2.46875 2.703125 -2.25 C 2.816406 -2.03125 2.875 -1.753906 2.875 -1.421875 C 2.875 -1.097656 2.816406 -0.828125 2.703125 -0.609375 C 2.585938 -0.390625 2.429688 -0.222656 2.234375 -0.109375 C 2.046875 -0.00390625 1.820312 0.046875 1.5625 0.046875 Z M 1.5625 -0.359375 C 1.832031 -0.359375 2.035156 -0.441406 2.171875 -0.609375 C 2.316406 -0.785156 2.390625 -1.054688 2.390625 -1.421875 C 2.390625 -1.796875 2.316406 -2.066406 2.171875 -2.234375 C 2.035156 -2.410156 1.832031 -2.5 1.5625 -2.5 C 1.289062 -2.5 1.082031 -2.410156 0.9375 -2.234375 C 0.800781 -2.066406 0.734375 -1.796875 0.734375 -1.421875 C 0.734375 -1.054688 0.800781 -0.785156 0.9375 -0.609375 C 1.082031 -0.441406 1.289062 -0.359375 1.5625 -0.359375 Z M 1.5625 -0.359375 "/></g></g></g><g fill="#ff3131" fill-opacity="1"><g transform="translate(45.993598, 39.748421)"><g><path d="M 1.46875 -2.859375 C 1.664062 -2.859375 1.835938 -2.820312 1.984375 -2.75 C 2.128906 -2.675781 2.238281 -2.570312 2.3125 -2.4375 C 2.382812 -2.300781 2.421875 -2.144531 2.421875 -1.96875 C 2.421875 -1.789062 2.382812 -1.632812 2.3125 -1.5 C 2.238281 -1.375 2.128906 -1.273438 1.984375 -1.203125 C 1.835938 -1.128906 1.664062 -1.09375 1.46875 -1.09375 L 0.859375 -1.09375 L 0.859375 0 L 0.40625 0 L 0.40625 -2.859375 Z M 1.421875 -1.453125 C 1.773438 -1.453125 1.953125 -1.625 1.953125 -1.96875 C 1.953125 -2.3125 1.773438 -2.484375 1.421875 -2.484375 L 0.859375 -2.484375 L 0.859375 -1.453125 Z M 1.421875 -1.453125 "/></g></g></g><g fill="#ff3131" fill-opacity="1"><g transform="translate(49.811998, 39.748421)"><g/></g></g><g fill="#ff3131" fill-opacity="1"><g transform="translate(51.98651, 39.748421)"><g><path d="M 0.8125 0 L 0.40625 0 L 0.40625 -2.859375 L 1.015625 -2.859375 L 1.8125 -0.59375 L 1.859375 -0.59375 L 2.640625 -2.859375 L 3.25 -2.859375 L 3.25 0 L 2.828125 0 L 2.828125 -2.109375 L 2.765625 -2.125 L 2.015625 0 L 1.625 0 L 0.859375 -2.125 L 0.8125 -2.109375 Z M 0.8125 0 "/></g></g></g><g fill="#ff3131" fill-opacity="1"><g transform="translate(56.84747, 39.748421)"><g><path d="M 2.65625 0 L 2.1875 0 L 1.9375 -0.71875 L 0.78125 -0.71875 L 0.546875 0 L 0.078125 0 L 1.078125 -2.859375 L 1.671875 -2.859375 Z M 1.34375 -2.390625 L 0.90625 -1.09375 L 1.8125 -1.09375 L 1.390625 -2.390625 Z M 1.34375 -2.390625 "/></g></g></g><g fill="#ff3131" fill-opacity="1"><g transform="translate(60.792775, 39.748421)"><g><path d="M 0.859375 -2.859375 L 0.859375 -0.375 L 2.1875 -0.375 L 2.1875 0 L 0.40625 0 L 0.40625 -2.859375 Z M 0.859375 -2.859375 "/></g></g></g><g fill="#ff3131" fill-opacity="1"><g transform="translate(64.292941, 39.748421)"><g><path d="M 0.859375 -2.859375 L 0.859375 -0.375 L 2.1875 -0.375 L 2.1875 0 L 0.40625 0 L 0.40625 -2.859375 Z M 0.859375 -2.859375 "/></g></g></g><g mask="url(#e0f574e8e9)"><g transform="matrix(1, 0, 0, 1, 28, 40)"><g clip-path="url(#82366422f7)"><g clip-path="url(#1ad5868718)"><path stroke-linecap="butt" transform="matrix(0.75, 0.000000000000000211, -0.000000000000000211, 0.75, 1.625717, 0.973074)" fill="none" stroke-linejoin="miter" d="M -0.000955798 0.499443 L 50.40009 0.499443 " stroke="#ff3131" stroke-width="1" stroke-opacity="1" stroke-miterlimit="4"/></g></g></g></g></svg>